<svg xmlns="http://www.w3.org/2000/svg" viewBox="0 0 500 500"><defs><style>.cls-1{fill:#f23838;stroke:#000;}.cls-1,.cls-3{stroke-miterlimit:10;}.cls-2{fill:#f2eae4;}.cls-3{fill:#fff;stroke-linecap:round;}.cls-3,.cls-4{stroke:#f2eae4;stroke-width:30px;}.cls-4{fill:none;stroke-linejoin:round;}</style></defs><g id="Layer_5" data-name="Layer 5"><rect class="cls-1" x="-2.5" y="-2.5" width="502" height="502"/></g><g id="Layer_3" data-name="Layer 3"><path class="cls-2" d="M165.64,325.2a16.82,16.82,0,0,1-7.6-1.9A25.44,25.44,0,0,1,147.56,313c-4.84-8.33-6.07-16.77-3.65-25.07,2.26-7.8,8.06-12.65,15.11-12.65a17.91,17.91,0,0,1,12.26,5.31c6.46,6.07,10,13.81,10.82,23.65a7.53,7.53,0,0,1-.28,2.71c-.21.73-.39,1.47-.57,2.21l0,.12a37.28,37.28,0,0,1-2.29,7.07A14.57,14.57,0,0,1,165.64,325.2Z"/><path class="cls-2" d="M159,275.81A17.48,17.48,0,0,1,170.94,281c6.37,6,9.85,13.62,10.66,23.33a7,7,0,0,1-.26,2.53c-.21.74-.4,1.49-.58,2.23l0,.13a36.8,36.8,0,0,1-2.27,7,14.06,14.06,0,0,1-12.82,8.53,16.22,16.22,0,0,1-7.37-1.85A24.93,24.93,0,0,1,148,312.77c-4.77-8.2-6-16.5-3.6-24.67,2.2-7.58,7.81-12.29,14.63-12.29m0-1c-7.29,0-13.26,5-15.59,13-2.46,8.44-1.21,17,3.7,25.46a26,26,0,0,0,10.69,10.47,17.36,17.36,0,0,0,7.82,1.95c5.92,0,11.05-3.41,13.73-9.11a37.34,37.34,0,0,0,2.33-7.16c.19-.77.38-1.55.6-2.31a7.85,7.85,0,0,0,.29-2.89c-.82-10-4.41-17.82-11-24-3.8-3.56-8.15-5.44-12.6-5.44Z"/><path class="cls-2" d="M295.74,398.41a7.43,7.43,0,0,1-1.15-.09L287,397.17l-.14,0c-5.37-.82-11.46-1.74-17.3-2.72-1.3-.21-2.6-.44-3.9-.66-5.9-1-11.46-2-16.95-2a37.91,37.91,0,0,0-6,.44c-4.17.65-8.52,1.39-12.35,2s-8,1.36-12.11,2a100.12,100.12,0,0,1-15.76,1.63,46.63,46.63,0,0,1-6-.37c-11.06-1.39-16.74-7.71-16.88-18.77-.14-11.38,2.67-22.73,8.6-34.71,6.81-13.73,16.07-24.86,27.55-33.08,10.55-7.56,22.24-11.55,33.8-11.55a55.29,55.29,0,0,1,29,8.52c16.15,9.86,28.24,24.86,35.91,44.59a72,72,0,0,1,4.91,22.95c0,1.21.07,2.32,0,3.37-.27,10.67-6,17.09-16.52,18.57-1.47.2-2.84.31-4.24.41h-.08l-.07,0A7.37,7.37,0,0,1,295.74,398.41Z"/><path class="cls-2" d="M249.61,299.9a54.71,54.71,0,0,1,28.78,8.45c16.06,9.8,28.07,24.72,35.71,44.34A71.27,71.27,0,0,1,319,375.48c0,1.21.07,2.3,0,3.34-.26,10.39-5.82,16.64-16.09,18.08-1.46.21-2.82.31-4.2.41h-.16l-.15.06a7,7,0,0,1-2.67.53,6.63,6.63,0,0,1-1.08-.08l-7.56-1.16-.13,0c-5.38-.81-11.47-1.74-17.3-2.71l-3.89-.67c-5.92-1-11.51-2-17-2a38.64,38.64,0,0,0-6,.44c-4.18.66-8.53,1.4-12.36,2.05s-8,1.35-12.11,2a99.36,99.36,0,0,1-15.68,1.62,47.67,47.67,0,0,1-6-.36c-10.92-1.38-16.3-7.36-16.44-18.29-.14-11.29,2.65-22.57,8.55-34.48,6.77-13.66,16-24.73,27.39-32.89,10.46-7.5,22.05-11.46,33.51-11.46m0-1c-11.67,0-23.46,4-34.09,11.64-11.54,8.27-20.86,19.46-27.7,33.27-6,12.05-8.81,23.48-8.66,34.93s6,17.84,17.32,19.27a47.58,47.58,0,0,0,6.07.37,100.57,100.57,0,0,0,15.84-1.63c4.06-.64,8.15-1.34,12.12-2s8.24-1.4,12.34-2a38.12,38.12,0,0,1,5.89-.43c5.44,0,11,1,16.86,2l3.91.67c5.78,1,11.64,1.85,17.31,2.71l7.69,1.18a8.48,8.48,0,0,0,1.23.09,8,8,0,0,0,3.05-.6c1.37-.1,2.78-.21,4.27-.42,10.82-1.52,16.68-8.1,16.95-19,0-1.06,0-2.17,0-3.41A72.39,72.39,0,0,0,315,352.33c-7.72-19.83-19.87-34.92-36.12-44.83a55.69,55.69,0,0,0-29.3-8.6Z"/><path class="cls-2" d="M215.66,285.32c-5.7,0-10.78-2.74-15.11-8.15-7.26-9.06-8.4-19.43-8.63-26.44v-.44c.3-11,3-19.45,8.41-26.48,4.24-5.47,9.73-8.48,15.45-8.48a15.7,15.7,0,0,1,8,2.18,29.31,29.31,0,0,1,9.18,8.55c4.7,6.76,6.94,14.88,6.85,24.82a43.64,43.64,0,0,1-6.35,23.19c-2.3,3.67-6.16,8.77-13.1,10.62A18.31,18.31,0,0,1,215.66,285.32Z"/><path class="cls-2" d="M215.78,215.83a15.26,15.26,0,0,1,7.75,2.11,29,29,0,0,1,9,8.4c4.64,6.68,6.85,14.71,6.76,24.53A43.12,43.12,0,0,1,233,273.8c-2.26,3.61-6,8.6-12.81,10.41a18.12,18.12,0,0,1-4.57.61c-5.54,0-10.49-2.68-14.72-8-7.16-8.94-8.29-19.2-8.52-26.14v-.42c.3-10.93,2.93-19.25,8.31-26.18,4.14-5.35,9.49-8.29,15.05-8.29m0-1c-5.88,0-11.51,3.08-15.84,8.68-5.51,7.11-8.22,15.61-8.52,26.76v.48c.24,7.08,1.39,17.56,8.74,26.73,4.43,5.54,9.65,8.34,15.5,8.34a18.75,18.75,0,0,0,4.82-.65c7.12-1.89,11.06-7.09,13.4-10.84a44.08,44.08,0,0,0,6.43-23.45c.09-10-2.18-18.25-6.94-25.11a30,30,0,0,0-9.34-8.69,16.12,16.12,0,0,0-8.25-2.25Z"/><path class="cls-2" d="M283.06,285.31c-5.69,0-10.83-2.79-15.27-8.31a38.61,38.61,0,0,1-8-19.67c-1.5-11.5.44-21.7,5.76-30.32a30.24,30.24,0,0,1,6.71-7.64,17.5,17.5,0,0,1,11-4c5.77,0,11.27,3,15.49,8.35,5.39,6.89,8.16,15.46,8.47,26.22v.37c-.21,9.56-2.24,17.11-6.4,23.76-1.35,2.17-5.48,8.78-13.5,10.71A18,18,0,0,1,283.06,285.31Z"/><path class="cls-2" d="M283.27,215.88c5.61,0,11,2.89,15.09,8.15,5.33,6.81,8.07,15.29,8.37,25.93v.35c-.21,9.46-2.22,16.93-6.32,23.51-1.33,2.13-5.37,8.6-13.2,10.49a18,18,0,0,1-4.15.5c-5.53,0-10.54-2.73-14.89-8.12a38.27,38.27,0,0,1-7.85-19.42c-1.48-11.38.43-21.48,5.69-30a29.83,29.83,0,0,1,6.61-7.51,16.94,16.94,0,0,1,10.65-3.88m0-1A17.93,17.93,0,0,0,272,219a30.74,30.74,0,0,0-6.83,7.77c-5.38,8.72-7.34,19-5.83,30.65a39.2,39.2,0,0,0,8.07,19.92c4.54,5.63,9.81,8.49,15.66,8.49a19,19,0,0,0,4.39-.53c8.22-2,12.42-8.72,13.81-10.93,4.2-6.74,6.26-14.37,6.47-24v-.4c-.31-10.86-3.12-19.53-8.58-26.51-4.31-5.51-9.95-8.54-15.88-8.54Z"/><path class="cls-2" d="M333.42,325.2a14,14,0,0,1-12.88-8.29,43.12,43.12,0,0,1-2.54-7.5l0-.12c-.22-.82-.44-1.65-.69-2.47a7.5,7.5,0,0,1,.38-5.39l0-.07v-.09A32.21,32.21,0,0,1,328,280.54a17.91,17.91,0,0,1,12.17-5.24c7,0,12.83,4.87,15.13,12.72a25.47,25.47,0,0,1,1.11,6.71,32.39,32.39,0,0,1-10.19,25,22.21,22.21,0,0,1-7,4.4A15.8,15.8,0,0,1,333.42,325.2Z"/><path class="cls-2" d="M340.13,275.8c6.8,0,12.42,4.74,14.65,12.36a25.32,25.32,0,0,1,1.09,6.58c.19,9.74-3.27,18.24-10,24.59a21.41,21.41,0,0,1-6.85,4.29,15.19,15.19,0,0,1-5.57,1.08,13.55,13.55,0,0,1-12.43-8,42.54,42.54,0,0,1-2.51-7.43l0-.11c-.22-.81-.45-1.66-.7-2.48a6.94,6.94,0,0,1,.36-5l.07-.16,0-.16a31.61,31.61,0,0,1,10.11-20.42,17.41,17.41,0,0,1,11.82-5.11m0-1c-4.4,0-8.72,1.86-12.51,5.38a32.63,32.63,0,0,0-10.42,21,8,8,0,0,0-.41,5.75c.26.85.49,1.71.72,2.56a44,44,0,0,0,2.58,7.6,14.52,14.52,0,0,0,13.33,8.57,16.12,16.12,0,0,0,5.94-1.15,22.44,22.44,0,0,0,7.17-4.5c7-6.54,10.54-15.3,10.34-25.33a26,26,0,0,0-1.13-6.84c-2.36-8.07-8.35-13.08-15.61-13.08Z"/><line class="cls-3" x1="142.2" y1="106" x2="142.2" y2="39.61"/><line class="cls-3" x1="357.2" y1="106" x2="357.2" y2="39.61"/><rect class="cls-4" x="69.5" y="83.5" width="368" height="368"/><line class="cls-4" x1="69.88" y1="164.54" x2="437.5" y2="164.54"/></g></svg>