<?xml version="1.0" encoding="iso-8859-1"?>
<!-- Generator: Adobe Illustrator 18.0.0, SVG Export Plug-In . SVG Version: 6.00 Build 0)  -->
<!DOCTYPE svg PUBLIC "-//W3C//DTD SVG 1.1//EN" "http://www.w3.org/Graphics/SVG/1.1/DTD/svg11.dtd">
<svg version="1.1" id="Capa_1" xmlns="http://www.w3.org/2000/svg" xmlns:xlink="http://www.w3.org/1999/xlink" x="0px" y="0px"
	 viewBox="0 0 310.883 310.883" style="enable-background:new 0 0 310.883 310.883;" xml:space="preserve">
<path d="M299.459,174.267c0,0-16.433-71.773-16.707-72.356c-3.429-10.694-17.078-19.279-40.725-25.565
	c-23.243-6.181-53.993-9.584-86.586-9.584c-32.592,0-63.343,3.403-86.586,9.584c-23.657,6.29-37.308,14.879-40.729,25.58
	c-0.272,0.578-16.702,72.342-16.702,72.342C4.778,176.576,0,182.879,0,190.312c0,18.79,17.893,33.075,53.18,42.458
	c27.533,7.32,63.85,11.353,102.261,11.353c0.002,0,0.004,0,0.006,0c38.41,0,74.724-4.031,102.255-11.352
	c35.287-9.383,53.18-23.668,53.18-42.459C310.883,182.879,306.105,176.576,299.459,174.267z M211.452,189.198
	c0,7.987-6.498,14.486-14.485,14.486c-7.755,0-14.107-6.124-14.471-13.79h-54.11c-0.365,7.666-6.715,13.79-14.469,13.79
	c-7.988,0-14.486-6.499-14.486-14.486c0-3.783,1.458-7.232,3.842-9.815c-2.384-2.583-3.842-6.032-3.842-9.815
	c0-7.987,6.499-14.486,14.486-14.486c7.754,0,14.104,6.124,14.469,13.79h54.11c0.364-7.666,6.716-13.79,14.471-13.79
	c7.987,0,14.485,6.499,14.485,14.486c0,3.783-1.458,7.232-3.842,9.815C209.994,181.966,211.452,185.415,211.452,189.198z
	 M235.357,120c-21.545,5.448-49.926,8.449-79.916,8.449c-29.99,0-58.371-3.001-79.916-8.449
	c-20.722-5.24-28.012-10.998-29.796-13.382c1.8-2.425,9.104-8.177,29.8-13.409c21.544-5.448,49.924-8.448,79.912-8.448
	c29.987,0,58.367,3,79.911,8.448c20.654,5.223,27.97,10.961,29.789,13.395C263.329,109.033,256.023,114.773,235.357,120z"/>
<g>
</g>
<g>
</g>
<g>
</g>
<g>
</g>
<g>
</g>
<g>
</g>
<g>
</g>
<g>
</g>
<g>
</g>
<g>
</g>
<g>
</g>
<g>
</g>
<g>
</g>
<g>
</g>
<g>
</g>
</svg>
