<?xml version="1.0" encoding="iso-8859-1"?>
<!-- Generator: Adobe Illustrator 18.0.0, SVG Export Plug-In . SVG Version: 6.00 Build 0)  -->
<!DOCTYPE svg PUBLIC "-//W3C//DTD SVG 1.1//EN" "http://www.w3.org/Graphics/SVG/1.1/DTD/svg11.dtd">
<svg version="1.1" id="Capa_1" xmlns="http://www.w3.org/2000/svg" xmlns:xlink="http://www.w3.org/1999/xlink" x="0px" y="0px"
	 viewBox="0 0 374.478 374.478" style="enable-background:new 0 0 374.478 374.478;" xml:space="preserve">
<g>
	<path d="M89.14,150.916c-0.046,9.179-7.524,16.582-16.705,16.539c-9.181-0.044-16.585-7.519-16.54-16.696
		c0.045-9.178,7.524-16.582,16.705-16.538C81.779,134.264,89.185,141.738,89.14,150.916z"/>
	<circle cx="168.056" cy="317.737" r="11.894"/>
	<circle cx="30.821" cy="312.611" r="14.756"/>
	<path d="M320.296,165.843h-87.758c-21.016,0-38.113,17.1-38.113,38.117v126.5l63.939-0.002l36.602-98.744
		c1.151-3.107,4.603-4.693,7.711-3.541c3.107,1.151,4.692,4.604,3.541,7.711l-38.054,102.659c-0.872,2.354-3.116,3.915-5.626,3.915
		l-107.659,0.004c-7.926-0.001-14.373,6.449-14.374,14.378c0,3.837,1.494,7.444,4.208,10.158c2.715,2.715,6.324,4.48,10.165,4.48
		h197.535c3.313,0,6-2.686,6-6V203.96C358.413,182.942,341.314,165.843,320.296,165.843z"/>
	<path d="M276.417,149.596c41.244,0,74.8-33.554,74.8-74.798c0-41.244-33.556-74.798-74.8-74.798
		c-41.242,0-74.796,33.554-74.796,74.798C201.621,116.042,235.175,149.596,276.417,149.596z"/>
	<path d="M87.884,360.105c-0.033,7.524-6.161,13.589-13.687,13.546c-7.525-0.041-13.6-6.174-13.566-13.698
		c0.033-7.524,6.161-13.589,13.686-13.547C81.843,346.448,87.917,352.581,87.884,360.105z"/>
	<g>
		<path d="M167.699,184.984c-2.479-0.802-5.188,0.089-6.71,2.2l-14.418,19.993l-6.715-16.336c-0.907-2.206-3.035-3.666-5.421-3.718
			c-0.043-0.001-0.086-0.001-0.13-0.001c-2.334,0-4.462,1.357-5.445,3.482l-10.045,21.727c-1.384-0.209-2.783-0.314-4.189-0.314
			c-10.455,0-19.989,5.822-24.866,14.845l-39.809,1.474c-1.677,0.063-3.25,0.823-4.34,2.099c-1.09,1.274-1.596,2.948-1.396,4.613
			c3.396,28.265,22.789,49.602,49.033,54.73l-15.688,46.128c11.903,1.631,21.079,11.887,21.021,24.22
			c-0.025,5.368-1.807,10.332-4.793,14.352h41.486c-4.376-4.85-6.771-11.061-6.771-17.641c0.001-12.784,9.143-23.469,21.23-25.868
			c-2.801-3.861-4.324-8.48-4.301-13.341c0.061-12.411,10.21-22.509,22.624-22.509c0.01,0,0.101,0,0.109,0
			c1.251,0.006,2.479,0.137,3.688,0.34V190.694C171.856,188.091,170.177,185.785,167.699,184.984z"/>
	</g>
	<path d="M30.545,374.377l21.551,0.102c-2.094-3.787-6.122-6.366-10.748-6.388C36.711,368.091,32.672,370.629,30.545,374.377z"/>
</g>
<g>
</g>
<g>
</g>
<g>
</g>
<g>
</g>
<g>
</g>
<g>
</g>
<g>
</g>
<g>
</g>
<g>
</g>
<g>
</g>
<g>
</g>
<g>
</g>
<g>
</g>
<g>
</g>
<g>
</g>
</svg>
