<?xml version="1.0" encoding="utf-8"?>
<!-- Generator: Adobe Illustrator 25.0.1, SVG Export Plug-In . SVG Version: 6.00 Build 0)  -->
<svg version="1.1" id="Capa_1" xmlns="http://www.w3.org/2000/svg" xmlns:xlink="http://www.w3.org/1999/xlink" x="0px" y="0px"
	 viewBox="0 0 422.1 422.1" style="enable-background:new 0 0 422.1 422.1;" xml:space="preserve">
<style type="text/css">
	.st0{fill:none;stroke:#000000;stroke-width:30;stroke-linecap:round;stroke-linejoin:round;stroke-miterlimit:10;}
	.st1{fill:#F26938;}
	.st2{stroke:#000000;stroke-miterlimit:10;}
	.st3{fill:#FFFFFF;stroke:#000000;stroke-width:30;stroke-linecap:round;stroke-linejoin:round;stroke-miterlimit:10;}
	.st4{fill:none;stroke:#000000;stroke-width:50;stroke-miterlimit:10;}
</style>
<g>
	<g>
		<path d="M47.6,248.2c-5.1,0-10.2-1.3-15.1-3.8C24,240.2,17,233.3,11.7,224c-9.6-16.5-12-33.2-7.2-49.6
			c4.5-15.5,16.1-25.2,30.1-25.2c8.6,0,17,3.7,24.4,10.6c12.8,12,19.8,27.3,21.4,46.8c0.2,1.9,0,3.7-0.5,5.5
			c-0.4,1.4-0.8,2.9-1.1,4.3l-0.1,0.3c-1.1,4.3-2.3,9.1-4.5,14C68.9,241.6,59,248.2,47.6,248.2z"/>
		<path d="M34.6,149.7c8.5,0,16.8,3.6,24.1,10.4c12.7,11.9,19.6,27.1,21.2,46.4c0.1,1.8,0,3.6-0.5,5.3c-0.4,1.4-0.8,2.9-1.1,4.3
			l-0.1,0.3c-1.1,4.2-2.3,9.1-4.5,13.9c-5.1,10.8-14.8,17.3-26.1,17.3c-5,0-10-1.3-14.9-3.7c-8.3-4.2-15.2-11-20.6-20.2
			c-9.5-16.4-11.9-32.9-7.2-49.2C9.4,159.2,20.7,149.7,34.6,149.7 M34.6,148.7c-14.3,0-26,9.8-30.6,25.6c-4.8,16.6-2.4,33.4,7.3,50
			c5.4,9.4,12.5,16.3,21,20.6c5,2.5,10.2,3.8,15.4,3.8c11.6,0,21.7-6.7,27-17.9c2.3-4.9,3.5-9.8,4.6-14.1c0.4-1.5,0.8-3.1,1.2-4.6
			c0.5-1.8,0.7-3.8,0.6-5.7c-1.6-19.6-8.7-35-21.5-47.1C51.9,152.4,43.3,148.7,34.6,148.7L34.6,148.7z"/>
	</g>
	<g>
		<path d="M47.6,232.5c-2.6,0-5.3-0.7-8.1-2.1c-5.7-2.9-10.4-7.5-14.3-14.2c-7.4-12.8-9.3-25-5.7-37.3c2.5-8.7,8.2-13.9,15.1-13.9
			c4.5,0,9.3,2.2,13.7,6.3c9.8,9.2,15.2,21.1,16.5,36.5c-0.5,1.7-0.9,3.4-1.3,5.1c-0.9,3.7-1.9,7.6-3.5,11.1
			C57.3,229.4,52.9,232.5,47.6,232.5z"/>
		<path d="M34.6,164.4v1h0c4.4,0,9,2.1,13.3,6.2c9.7,9.1,15,20.9,16.3,36.1c-0.5,1.7-0.9,3.4-1.3,5c-0.9,3.7-1.9,7.6-3.5,11
			c-2.5,5.3-6.7,8.3-11.8,8.3c-2.5,0-5.1-0.7-7.8-2c-5.6-2.8-10.2-7.4-14.1-14c-7.4-12.7-9.2-24.7-5.7-36.9
			c2.5-8.5,7.9-13.5,14.6-13.5L34.6,164.4 M34.6,164.4c-6.9,0-12.8,4.9-15.5,14.2c-3.9,13.4-1.1,25.9,5.8,37.7
			c3.5,6.1,8.1,11.2,14.5,14.4c2.9,1.4,5.7,2.1,8.3,2.1c5.4,0,10-3,12.7-8.8c2.4-5.1,3.3-10.9,4.9-16.3c-1.2-14.6-6.1-27-16.6-36.9
			C43.9,166.5,39.1,164.4,34.6,164.4L34.6,164.4z"/>
	</g>
	<g>
		<path d="M303.1,392c-0.8,0-1.6-0.1-2.3-0.2c-5-0.8-10.1-1.5-15.1-2.3c-10.5-1.6-22.4-3.4-34-5.3c-2.4-0.4-4.9-0.8-7.3-1.3
			l-0.4-0.1c-11.6-2-22.5-3.9-33.2-3.9c-4.1,0-8,0.3-11.6,0.9c-8.3,1.3-16.8,2.7-24.3,4c-7.4,1.2-15.7,2.7-23.8,3.9
			c-10,1.6-20.3,3.2-31,3.2c-4.2,0-8-0.2-11.9-0.7c-22-2.8-33.3-15.3-33.6-37.3c-0.3-22.4,5.3-44.8,16.9-68.4
			c13.4-27,31.6-49,54.2-65.1c20.8-14.9,43.9-22.8,66.7-22.8c19.7,0,39,5.7,57.3,16.8c31.8,19.4,55.6,49,70.7,87.8
			c5.8,14.8,9,30,9.7,45.2c0.1,2.4,0.1,4.6,0.1,6.7c-0.5,21.2-11.9,34-32.9,36.9c-2.9,0.4-5.7,0.6-8.4,0.8l-0.1,0l-0.1,0
			C307,391.6,305.1,392,303.1,392z"/>
		<path d="M212.5,197c19.6,0,38.8,5.6,57,16.7c31.7,19.4,55.5,48.8,70.5,87.6c5.7,14.7,9,29.9,9.6,45.1c0.1,2.4,0.1,4.5,0.1,6.6
			c-0.5,20.9-11.7,33.5-32.4,36.4c-2.9,0.4-5.6,0.6-8.3,0.8l-0.2,0l-0.1,0.1c-1.8,0.7-3.7,1.1-5.6,1.1c-0.8,0-1.5-0.1-2.3-0.2
			c-4.9-0.8-9.9-1.5-14.8-2.3l-0.3,0c-10.6-1.6-22.5-3.4-34-5.3c-2.6-0.4-5.1-0.9-7.7-1.3c-11.6-2-22.5-3.9-33.3-3.9
			c-4.2,0-8,0.3-11.7,0.9c-8.2,1.3-16.7,2.7-24.3,4c-7.4,1.3-15.7,2.7-23.8,3.9c-9.9,1.6-20.2,3.2-30.9,3.2c-4.1,0-8-0.2-11.8-0.7
			c-21.7-2.7-32.9-15.1-33.1-36.9c-0.3-22.3,5.2-44.6,16.9-68.1c13.4-27,31.6-48.8,54.1-65C166.8,204.9,189.8,197,212.5,197
			 M212.5,196c-22.9,0-46.1,7.9-67,22.9c-22.7,16.2-41,38.2-54.4,65.3c-11.7,23.7-17.3,46.1-17,68.6c0.3,22.3,11.7,35,34,37.8
			c3.9,0.5,7.8,0.7,11.9,0.7c10.8,0,21-1.6,31.1-3.2c8-1.3,16-2.6,23.8-3.9c8-1.4,16.2-2.7,24.2-4c3.7-0.6,7.5-0.9,11.6-0.9
			c10.7,0,21.6,1.9,33.1,3.9c2.6,0.4,5.1,0.9,7.7,1.3c11.4,1.9,22.9,3.6,34,5.3c5,0.8,10.1,1.5,15.1,2.3c0.8,0.1,1.6,0.2,2.4,0.2
			c2.1,0,4.1-0.4,6-1.2c2.7-0.2,5.5-0.4,8.4-0.8c21.2-3,32.7-15.9,33.3-37.4c0-2.1,0-4.3-0.1-6.7c-0.7-15.3-3.9-30.5-9.7-45.4
			c-15.2-39-39-68.6-70.9-88.1C251.7,201.7,232.3,196,212.5,196L212.5,196z"/>
	</g>
	<g>
		<path d="M302.7,376.2c-4.8-0.7-9.7-1.5-14.5-2.2c-11.1-1.7-22.6-3.4-33.9-5.3c-2.5-0.4-5-0.9-7.5-1.3c-11.7-2-23.8-4.2-35.9-4.2
			c-5,0-9.6,0.3-14.1,1c-8.2,1.3-16.4,2.7-24.4,4c-7.7,1.3-15.7,2.7-23.6,3.9l-0.2,0c-9.3,1.5-18.9,3-28.4,3c-3.5,0-6.7-0.2-9.9-0.6
			c-14.1-1.8-19.7-7.9-19.8-22c-0.3-19.9,4.8-39.9,15.3-61.2c12.2-24.7,28.8-44.7,49.3-59.3c18.4-13.2,37.7-19.8,57.5-19.8
			c16.8,0,33.3,4.9,49.1,14.5c29.2,17.8,50.2,44,64.3,80.1c5.1,13.2,8,26.7,8.6,40.2c0.1,2.1,0.1,3.9,0.1,5.6
			c-0.3,13.4-6.1,19.9-19.3,21.7c-2.7,0.4-5.5,0.6-8.2,0.8c-1.3,0.1-2.5,0.2-3.8,0.3l-0.4,0L302.7,376.2z"/>
		<path d="M212.5,212.8c16.7,0,33.1,4.9,48.8,14.4c29.1,17.8,50.1,43.9,64.1,79.8c5.1,13.1,8,26.6,8.6,40.1c0.1,2,0.1,3.9,0.1,5.6
			c-0.3,13.3-5.8,19.4-18.9,21.3c-2.7,0.4-5.5,0.6-8.2,0.8c-1.3,0.1-2.5,0.2-3.8,0.3l-0.7,0.1l-0.1,0.6c-4.7-0.7-9.4-1.4-14.1-2.2
			c-11.1-1.7-22.6-3.4-33.9-5.3c-2.5-0.4-5-0.9-7.5-1.3c-11.7-2-23.9-4.2-36-4.2c-5,0-9.6,0.3-14.2,1.1c-8.2,1.3-16.4,2.7-24.4,4
			c-7.7,1.3-15.7,2.7-23.6,3.9l-0.2,0c-9.3,1.5-18.8,3-28.3,3c-3.5,0-6.7-0.2-9.8-0.6c-14-1.8-19.2-7.6-19.4-21.5
			c-0.3-19.8,4.7-39.7,15.3-61c12.2-24.6,28.7-44.5,49.2-59.2C173.6,219.4,192.8,212.8,212.5,212.8L212.5,212.8 M212.5,211.8
			c-19.9,0-39.6,6.9-57.8,19.9c-21.6,15.5-37.7,35.8-49.5,59.5c-9.6,19.3-15.6,39.6-15.4,61.4c0.2,14.4,6,20.7,20.3,22.5
			c3.3,0.4,6.7,0.6,10,0.6c9.6,0,19.1-1.5,28.7-3c16-2.5,32-5.4,48.1-8c4.7-0.7,9.4-1,14-1c14.6,0,28.9,3,43.4,5.4
			c16.3,2.7,32.6,5.1,48.9,7.6c0.1-0.3,0.1-0.5,0.2-0.8c4-0.3,8-0.5,12-1c13.5-1.9,19.4-8.6,19.8-22.2c0-1.9,0-3.7-0.1-5.6
			c-0.6-13.9-3.6-27.4-8.6-40.4c-13.1-33.5-33.4-61.4-64.5-80.3C245.7,216.5,229,211.8,212.5,211.8L212.5,211.8z"/>
	</g>
	<g>
		<path d="M145.8,169.9c-11.3,0-21.4-5.4-30-16.2c-14.3-17.9-16.6-38.4-17-52.2c0-0.3,0-0.6,0-0.9c0.6-21.8,5.9-38.4,16.6-52.3
			c8.4-10.9,19.3-16.8,30.7-16.8c5.6,0,11,1.5,16,4.3c6.9,4,13.4,10,18.2,16.9c9.3,13.4,13.7,29.4,13.5,49
			c-0.2,17.3-4.4,32.7-12.6,45.8c-4.6,7.3-12.2,17.4-26,21.1C152,169.4,148.9,169.9,145.8,169.9z"/>
		<path d="M146.1,31.9c5.5,0,10.8,1.4,15.7,4.3c6.9,4,13.3,10,18,16.8c9.2,13.3,13.6,29.2,13.5,48.7c-0.2,17.2-4.4,32.6-12.5,45.5
			c-4.5,7.2-12.1,17.2-25.7,20.8c-3.1,0.8-6.2,1.2-9.2,1.2c-11.2,0-21.1-5.4-29.6-16c-14.2-17.8-16.5-38.1-16.9-51.9
			c0-0.3,0-0.6,0-0.9c0.6-21.7,5.8-38.2,16.5-52C124,37.9,134.8,31.9,146.1,31.9 M146.1,30.9c-11.6,0-22.6,6.1-31.1,17
			c-10.8,14-16.1,30.7-16.7,52.6c0,0.3,0,0.6,0,0.9c0.5,13.9,2.7,34.5,17.2,52.5c8.7,10.9,18.9,16.4,30.4,16.4
			c3.1,0,6.3-0.4,9.5-1.3c14-3.7,21.7-13.9,26.3-21.3c8.2-13.1,12.5-28.6,12.6-46.1c0.2-19.7-4.3-35.9-13.6-49.3
			c-4.8-6.9-11.3-13-18.3-17.1C157.2,32.4,151.8,30.9,146.1,30.9L146.1,30.9z"/>
	</g>
	<g>
		<path d="M145.8,154.1c-6.4,0-12.2-3.4-17.8-10.3c-8.7-10.8-13-24.5-13.6-42.9c0.5-18.3,4.7-31.9,13.3-43
			c5.4-6.9,11.9-10.8,18.3-10.8c2.8,0,5.5,0.7,8.1,2.2c4.9,2.9,9.7,7.3,13.2,12.3c7.4,10.6,10.9,23.7,10.7,39.9
			c-0.1,14.6-3.5,26.9-10.2,37.6c-3.4,5.5-8.4,12-16.7,14.2C149.3,153.9,147.5,154.1,145.8,154.1z"/>
		<path d="M146.1,46.6v1h0c2.7,0,5.4,0.7,7.8,2.2c4.9,2.8,9.6,7.2,13,12.2c7.3,10.5,10.8,23.5,10.6,39.6
			c-0.1,14.5-3.4,26.7-10.1,37.3c-3.4,5.4-8.3,11.8-16.5,14c-1.8,0.5-3.5,0.7-5.2,0.7c-6.2,0-11.9-3.3-17.4-10.1
			c-8.6-10.7-12.9-24.3-13.5-42.6c0.5-18.2,4.7-31.7,13.2-42.8c5.3-6.8,11.6-10.6,17.9-10.6L146.1,46.6 M146.1,46.6
			c-6.6,0-13.3,3.9-18.7,11c-9.9,12.7-13,27.6-13.4,43.4c0.5,15.7,3.6,30.6,13.7,43.2c4.9,6.1,10.7,10.5,18.2,10.5
			c1.7,0,3.5-0.2,5.4-0.7c7.8-2.1,12.9-7.8,17-14.4c7.2-11.6,10.1-24.4,10.2-37.9c0.1-14.3-2.5-28.3-10.8-40.2
			c-3.4-4.9-8.2-9.5-13.3-12.4C151.7,47.4,148.9,46.6,146.1,46.6L146.1,46.6z"/>
	</g>
	<g>
		<path d="M278.2,169.8c-11.3,0-21.5-5.6-30.4-16.5c-8.4-10.5-13.7-23.5-15.7-38.9c-3-22.7,0.9-42.8,11.4-59.9
			c3.6-5.8,8.2-11,13.3-15.1c6.5-5.2,14-8,21.8-8c11.5,0,22.4,5.9,30.8,16.6c10.7,13.6,16.1,30.6,16.7,51.8c0,0.3,0,0.5,0,0.8
			c-0.4,18.9-4.4,33.8-12.6,46.9c-2.7,4.3-10.9,17.4-26.8,21.2C283.8,169.5,281,169.8,278.2,169.8z"/>
		<path d="M278.6,32c11.3,0,22.1,5.8,30.4,16.4c10.6,13.5,16,30.4,16.6,51.5c0,0.2,0,0.5,0,0.7c-0.4,18.8-4.4,33.6-12.6,46.7
			c-2.7,4.3-10.8,17.2-26.5,21c-2.8,0.7-5.6,1-8.4,1c-11.2,0-21.2-5.5-30-16.3c-8.4-10.4-13.6-23.4-15.6-38.6
			c-2.9-22.6,0.9-42.6,11.3-59.5c3.5-5.7,8.1-10.9,13.2-15C263.5,34.7,270.9,32,278.6,32 M278.6,31c-7.9,0-15.6,2.8-22.1,8.1
			c-5.2,4.1-9.8,9.4-13.4,15.3c-10.6,17.1-14.4,37.4-11.5,60.2c2,15.4,7.3,28.6,15.8,39.1c8.9,11.1,19.3,16.7,30.8,16.7
			c2.8,0,5.7-0.4,8.6-1c16.1-3.9,24.4-17.1,27.1-21.5c8.3-13.2,12.3-28.2,12.7-47.2c0-0.3,0-0.5,0-0.8c-0.6-21.3-6.1-38.4-16.8-52.1
			C301.3,37,290.2,31,278.6,31L278.6,31z"/>
	</g>
	<g>
		<path d="M278.2,154.1c-6.5,0-12.3-3.4-18.1-10.6c-6.7-8.3-10.7-18.5-12.4-31c-2.5-19.3,0.5-35.5,9.2-49.6c2.6-4.3,6-8.1,9.8-11.1
			c3.7-3,7.8-4.5,12-4.5c6.6,0,13.1,3.8,18.4,10.6c8.6,11,12.9,24.5,13.4,42.5c-0.3,15.9-3.6,28.3-10.3,38.9
			c-5.2,8.3-10.5,12.7-17.2,14.3C281.4,153.9,279.7,154.1,278.2,154.1z"/>
		<path d="M278.6,47.7L278.6,47.7c6.4,0,12.8,3.7,18,10.4c8.6,10.9,12.8,24.4,13.3,42.2c-0.4,15.8-3.6,28.1-10.2,38.7
			c-5.1,8.1-10.3,12.5-16.9,14.1c-1.6,0.4-3.2,0.6-4.7,0.6c-6.4,0-12-3.3-17.7-10.5c-6.6-8.2-10.6-18.3-12.3-30.8
			c-2.5-19.2,0.5-35.3,9.1-49.3c2.6-4.2,6-8.1,9.6-11C270.5,49.2,274.5,47.7,278.6,47.7 M278.6,46.7c-4.2,0-8.4,1.5-12.3,4.6
			c-3.8,3.1-7.3,7-9.9,11.2c-9.5,15.4-11.5,32.4-9.2,49.9c1.5,11.4,5.2,22.2,12.5,31.3c5,6.2,10.8,10.8,18.5,10.8
			c1.6,0,3.2-0.2,4.9-0.6c8-1.9,13.3-7.8,17.5-14.5c7.4-11.8,10-25,10.3-39.2c-0.4-15.2-3.6-30.1-13.5-42.8
			C291.9,50.4,285.2,46.7,278.6,46.7L278.6,46.7z"/>
	</g>
	<g>
		<path d="M377.1,248.2c-11.2,0-20.8-6.2-25.7-16.6c-2.4-5.1-3.8-10.2-5-14.8l-0.1-0.3c-0.4-1.6-0.9-3.2-1.3-4.8
			c-1.1-3.6-0.8-7.5,0.8-10.9l0-0.1l0-0.1c1.7-16.3,8.6-30.1,20.3-41c7.3-6.8,15.7-10.4,24.2-10.4c14,0,25.6,9.7,30.2,25.3
			c1.4,4.7,2.1,9.1,2.2,13.3c0.4,19.5-6.6,36.6-20.2,49.4c-3.9,3.7-8.7,6.7-13.9,8.7C384.8,247.4,380.9,248.2,377.1,248.2z"/>
		<path d="M390.3,149.7c13.8,0,25.2,9.6,29.7,25c1.4,4.6,2.1,9.1,2.2,13.2c0.4,19.4-6.5,36.3-20,49c-3.9,3.6-8.6,6.6-13.8,8.6
			c-3.7,1.5-7.5,2.2-11.3,2.2c-11,0-20.4-6.1-25.3-16.3c-2.4-5.1-3.8-10.2-5-14.7l-0.1-0.2c-0.4-1.6-0.9-3.2-1.4-4.8
			c-1.1-3.5-0.8-7.3,0.8-10.6l0.1-0.2l0-0.2c1.7-16.2,8.5-29.9,20.2-40.7C373.6,153.3,381.9,149.7,390.3,149.7 M390.3,148.7
			c-8.6,0-17.1,3.7-24.6,10.6c-11.8,11-18.7,24.9-20.5,41.3c-1.6,3.4-2,7.4-0.8,11.3c0.5,1.7,1,3.3,1.4,5c1.2,4.6,2.6,9.8,5.1,14.9
			c5,10.5,14.8,16.8,26.2,16.8c3.9,0,7.8-0.8,11.7-2.3c5.2-2.1,10.1-5.1,14.1-8.8c13.7-12.9,20.7-30.1,20.3-49.8
			c-0.1-4.2-0.8-8.7-2.2-13.4C416.3,158.6,404.5,148.7,390.3,148.7L390.3,148.7z"/>
	</g>
	<g>
		<path d="M377.1,232.5c-5,0-9.2-2.8-11.5-7.6c-1.8-3.8-3-8.1-4.1-12.2c-0.5-1.7-0.9-3.4-1.4-5.1l1-0.4l0-0.3
			c0.5-14.5,5.8-26.5,15.7-35.8c4.4-4.1,9-6.2,13.5-6.2c6.9,0,12.5,5.2,15.1,14c1,3.3,1.5,6.4,1.6,9.2c0.3,15.2-4.8,27.9-15.2,37.6
			c-2.4,2.3-5.6,4.3-8.9,5.6C380.9,232.1,379,232.5,377.1,232.5z"/>
		<path d="M390.3,164.4v1h0c6.7,0,12.1,5,14.6,13.7c1,3.3,1.5,6.3,1.5,9.1c0.3,15-4.8,27.6-15.1,37.3c-2.4,2.2-5.5,4.2-8.7,5.5
			c-1.9,0.7-3.8,1.1-5.6,1.1c-4.8,0-8.9-2.7-11.1-7.3c-1.8-3.8-2.9-8-4-12.1c-0.4-1.5-0.8-3.1-1.3-4.7l0.2-0.1l0.6-0.2l0-0.7
			c0.5-14.4,5.7-26.3,15.6-35.4c4.3-4,8.8-6.1,13.2-6.1L390.3,164.4 M390.3,164.4c-4.4,0-9.2,2.1-13.9,6.4
			c-10.5,9.7-15.4,22-15.9,36.1c-0.4,0.1-0.7,0.3-1.1,0.4c1.8,6,3,12.2,5.7,17.8c2.5,5.2,6.9,7.9,12,7.9c1.9,0,3.9-0.4,5.9-1.2
			c3.3-1.3,6.5-3.3,9-5.7c10.9-10.2,15.7-23.2,15.4-38c-0.1-3.1-0.7-6.3-1.6-9.3C403.1,169.4,397.2,164.4,390.3,164.4L390.3,164.4z"
			/>
	</g>
</g>
</svg>
